<svg xmlns="http://www.w3.org/2000/svg" version="1.0" preserveAspectRatio="xMidYMid meet" viewBox="444.35 24.19 1031.31 1031.47">

<g transform="translate(0.000000,1080.000000) scale(0.100000,-0.100000)" fill="#000000" stroke="none">
<path d="M8761 10549 c-930 -48 -1861 -357 -2661 -883 -315 -208 -571 -416 -850 -695 -147 -146 -155 -155 -40 -45 1157 1108 2711 1637 4240 1443 735 -93 1466 -375 2054 -792 484 -343 915 -823 1126 -1252 83 -169 110 -258 88 -287 -12 -16 -15 -16 -47 -1 -19 9 -151 132 -295 272 -412 404 -679 613 -1056 831 -668 385 -1406 582 -2185 583 -586 1 -1119 -99 -1655 -310 -813 -320 -1532 -872 -2055 -1578 -1130 -1524 -1297 -3571 -435 -5330 274 -559 598 -1013 1039 -1455 146 -147 155 -155 45 -40 -1108 1157 -1637 2711 -1443 4240 93 735 375 1466 792 2054 343 484 823 915 1252 1126 169 83 258 110 287 88 16 -12 16 -15 1 -47 -9 -19 -132 -151 -272 -295 -404 -412 -613 -679 -831 -1056 -385 -668 -582 -1406 -583 -2185 -1 -586 99 -1119 310 -1655 320 -813 872 -1532 1578 -2055 1524 -1130 3571 -1297 5330 -435 559 274 1013 598 1455 1039 147 146 155 155 40 45 -1157 -1108 -2711 -1637 -4240 -1443 -735 93 -1466 375 -2054 792 -484 343 -915 823 -1126 1252 -83 169 -110 258 -88 287 12 16 15 16 47 1 19 -9 151 -132 295 -272 412 -404 679 -613 1056 -831 668 -385 1406 -582 2185 -583 586 -1 1119 99 1655 310 813 320 1532 872 2055 1578 1130 1524 1297 3571 435 5330 -274 559 -598 1013 -1039 1455 -146 147 -155 155 -45 40 1108 -1157 1637 -2711 1443 -4240 -93 -735 -375 -1466 -792 -2054 -343 -484 -823 -915 -1252 -1126 -169 -83 -258 -110 -287 -88 -16 12 -16 15 -1 47 9 19 132 151 272 295 404 412 613 679 831 1056 385 668 582 1406 583 2185 1 586 -99 1119 -310 1655 -237 602 -583 1130 -1048 1595 -867 868 -2010 1368 -3280 1435 -211 11 -297 11 -524 -1z m1679 -3807 c132 -41 198 -79 285 -167 122 -121 179 -256 191 -450 19 -289 -105 -539 -323 -653 l-75 -39 61 -22 c185 -67 332 -241 387 -456 27 -104 24 -313 -5 -419 -66 -245 -228 -412 -466 -482 -56 -17 -140 -18 -1172 -21 l-1113 -4 0 1371 0 1371 1078 -3 1077 -4 75 -22z"/>
<path d="M8310 5395 l0 -1275 383 0 c210 0 399 3 420 6 l37 7 0 1268 0 1269 -420 0 -420 0 0 -1275z"/>
<path d="M9650 6634 c197 -110 349 -302 438 -555 50 -143 75 -277 98 -543 l6 -69 86 6 c159 12 280 63 378 161 174 174 215 497 94 742 -70 142 -205 245 -368 279 -51 11 -154 15 -432 15 l-365 0 65 -36z"/>
<path d="M9250 6065 l0 -595 421 0 421 0 -7 88 c-28 359 -105 603 -249 791 -110 143 -273 244 -469 291 -45 11 -90 20 -99 20 -17 0 -18 -35 -18 -595z"/>
<path d="M9250 4760 l0 -620 23 0 c46 0 191 41 262 74 273 126 439 365 514 743 19 95 41 300 41 382 l0 41 -420 0 -420 0 0 -620z"/>
<path d="M10190 5351 c0 -15 -5 -86 -10 -157 -39 -494 -208 -834 -505 -1015 -87 -53 -88 -54 -54 -57 19 -2 201 -2 404 1 303 3 381 7 430 21 169 46 296 151 364 298 21 46 45 108 52 138 19 80 17 280 -4 360 -74 279 -287 440 -584 440 l-93 0 0 -29z"/>
</g>
</svg>